<svg id="Layer_1" data-name="Layer 1" xmlns="http://www.w3.org/2000/svg" viewBox="0 0 1546.65 818.25"><defs><style>.cls-1{fill:#00c6ea;}.cls-2{fill:#fff;}.cls-3{fill:none;}.cls-4{fill:#ff88d8;}</style></defs><title>Tonys</title><path class="cls-1" d="M552.42,78.06c10.39,0,39.46,82-50.06,112.69-17.84,4.45-35.88,6.1-54,6.1-7.55,0-15.11-.29-22.68-.77h-1.21c-4.23,0-6,1.71-7.46,5.9-12,35.23-20,71.51-28.69,107.63-12.7,52.68-24.59,105.68-45.15,156.12-59.95,162.71-164.9,162.89-165.36,162.89h0c-1.9.07-3.77.11-5.62.11-113.92,0-135.92-141.14-14.84-171.09a40,40,0,0,1,9.62-1.26c20.6,0,25.64,19.49,17.88,22.5C99.62,511.9,109,584,161.48,584a66.72,66.72,0,0,0,14.15-1.6c59.42-12.92,81.83-102.94,93.27-141.8,12.62-42.9,24.16-85,38.09-127.46,13.78-42,31.9-83.88,52.26-123.34.39-.76.63-1.6,1.06-2.71a15.85,15.85,0,0,0-3.25-1.67c-37.34-8.82-74.46-18.83-112.11-26a199.84,199.84,0,0,0-37.64-3.68c-34.46,0-67.37,9.61-98.07,29.52C87,199.66,74,213.93,69,234.26c-8.06,32.6,34.87,27.28,37.55,40.9,1.85,9.38-11.21,18.27-27.61,18.27-15.56,0-34.12-8-45.79-31.21-18.44-36.68,9.52-86.45,35.09-108.13,31.75-34.58,72.62-51.47,118.7-57.72a250.67,250.67,0,0,1,33.53-2.23c33.77,0,66.75,6.57,99.37,16.53s64.69,20.84,97.12,31c16,5,32.3,8.21,48.93,8.21a123.54,123.54,0,0,0,16.76-1.14c74.84-10,57.43-67.87,69.4-70.63a2,2,0,0,1,.42,0m0-27.11h0a29.41,29.41,0,0,0-6.54.74c-20.47,4.73-24.29,24.08-26.35,34.47-3.3,16.7-6.15,31.13-40.51,35.71a99.84,99.84,0,0,1-13.16.87c-12.47,0-25.83-2.28-40.84-7-14.14-4.42-28.55-9.09-42.48-13.61-17.9-5.8-36.4-11.79-54.81-17.42C288.7,72.82,253.62,67,220.44,67a276.71,276.71,0,0,0-37.17,2.48C126.86,77.12,83,98.4,49.35,134.48,32.73,149,17.71,170.54,9,192.41c-12,29.93-12,58.26-.08,81.92,14.53,28.9,40.7,46.15,70,46.15,18.8,0,36-7.25,46-19.38,7.49-9.12,10.43-20.22,8.25-31.26-3.94-20-22.38-26.81-32.28-30.48-1.32-.48-3.06-1.13-4.66-1.78,3-9,9.54-17.79,27.81-29.64,25.74-16.69,53.78-25.16,83.32-25.16A173.94,173.94,0,0,1,239.85,186c25.69,4.93,51.89,11.38,77.23,17.62l4.49,1.1a846.2,846.2,0,0,0-40.34,100c-10.3,31.44-19.44,63.06-28.28,93.64Q248,415.6,242.89,433c-.7,2.37-1.44,4.93-2.23,7.65-10,34.6-30.75,106.6-70.79,115.31a39.51,39.51,0,0,1-8.39,1c-5.21,0-11.66-1.29-12.81-7.4-1.85-9.94,9-31,46-45.37,15-5.8,23.25-21.57,20.11-38.35-3.28-17.6-19.64-36.54-47.78-36.54a67.46,67.46,0,0,0-16.13,2.05C72.71,450.64,43.78,508.86,49.77,558c5.74,47.13,46.5,97.85,122.42,97.85,2.12,0,4.28,0,6.46-.12,11.87-.3,126.09-7.75,189.8-180.18,19.5-48,31.45-97.95,43-146.3l3.17-13.34q1.92-8,3.8-16c6.26-26.37,12.23-51.5,19.91-76.13,3.39.09,6.7.14,10,.14,22.17,0,42-2.26,60.6-6.9.75-.19,1.49-.41,2.23-.66,69.48-23.83,86.8-77,79.84-118.72C586.12,68.42,571.7,51,552.42,51Z" transform="translate(0.03)"/><path class="cls-1" d="M1382.22,152.79c17.15,0,21.55,16.14,3.86,53.78.21,8.91.81,21.5,1.84,31.07,5.6,52.27,20.29,99.1,23.08,139a123.81,123.81,0,0,1-7.73,52.71c28-23.85,30.8-43.69,45.77-59.53A63.15,63.15,0,0,1,1494.5,350c10.8,0,19.5,3.15,22.67,7.78,11.23,16.44-21.26-.68-44,40.45-28.55,51.61-63.46,84.31-118.43,92.43a188.69,188.69,0,0,1-26.33,2c-35.17,0-69.1-11.49-93.12-46.49-1.35-1.85-2.62-3.79-3.83-5.78-26.17,36-65.82,62.91-113.84,89.13-30.11,101.48-67.55,224.62-129,255.78-6.71,3.49-13.29,5.82-20.13,5.82-9.69,0-19.91-4.69-31.75-17.39C924,759.45,910.63,738.55,908.11,715c-1-8.84-.08-21.59,2.92-35.32,16-65.75,70.86-117,139.2-153.41l8.28-27c-17.64,16-36.08,24.71-58.16,27.08a66,66,0,0,1-7.17.39c-20.28,0-34.47-9.91-43-24.45-22.19,21.75-51,37.87-78.35,40.8a124.93,124.93,0,0,1-13.26.74c-39.87,0-60.49-21.85-64.2-56.48-1.42-13.25-.21-29.77,4.36-49.62C808,399.49,828.24,358.61,842,327.34c4.76-10.89,16.19-42.46,14.09-42.46h0c-6.62.71-37,23.32-73.3,73.39-33.14,45.24-62,123.54-83.75,191.41-2.21,6.53-7,12.4-13.73,12.4-3.6,0-7.77-1.69-12.38-5.88-10.67-9.28-17.9-21.17-19.72-38.1-1.1-10.31.34-24.61,4-39.15,4.57-19.85,14.43-52.93,26.66-84.77-14.67,9-23.5,10-41.91,11.94-11.41,74.2-56.82,164.69-130.44,172.58a91.87,91.87,0,0,1-10,.54c-21.26,0-44.93-7.38-64.6-29-15.3-17.72-24.29-39.1-26.81-62.66-3.55-33.13,3.71-69.65,20-105.65C452.9,330.36,494.62,282,540.62,273.3a56.06,56.06,0,0,1,11.55-1.2c17.6,0,34,8.3,46.43,21.06a151.09,151.09,0,0,0,14,12.64c15.57,13.23,26.72,26.93,31.68,73.31,35-14.17,75.91-69.94,103.84-122.08,4.6-7.57,9.85-11.25,15.2-11.25,4.23,0,8.52,2.29,12.62,6.78a73.07,73.07,0,0,1,14.17,35,86.11,86.11,0,0,1,.68,13.33c27.84-32,64.18-61.23,86.27-63.6a24.19,24.19,0,0,1,2.55-.13c19.33,0,41.57,22.67,44.44,49.46a69.89,69.89,0,0,1-3.48,30.16c-5.86,14.77-14,35.76-23.85,55.43-10.38,21.21-24.5,56.24-30.21,72.49-5.63,17-7.73,32.1-6.46,43.88,1.48,13.86,7,22.66,16.9,22.66a17.09,17.09,0,0,0,1.89-.1c17.23-1.85,41.94-32.94,62.53-69.91a173.14,173.14,0,0,1,3.71-20.59c12-48.2,40.08-126.42,79-193.89,4.66-7.66,10.19-11.6,15.81-11.6,4.31,0,8.68,2.32,12.74,7.06,8.47,9.52,16.52,22.06,17.78,33.84,2,18.4-4.58,40.7-18.59,69.75-20.78,42.44-33,74.28-43.28,110.38C1001.31,462.89,997.82,492,1015,492a15.22,15.22,0,0,0,1.79-.1c19.14-2.05,47.62-49,77.14-114,40.42-88.48,55.49-135.51,70.31-163.91,5.71-9.22,11.64-13.55,17.53-13.55,3.27,0,6.54,1.34,9.74,3.93,12.23,9.86,16.36,20.58,18,36,1.58,14.73-.37,31.32-8,50.75-16.93,43.51-47.56,119-70.26,192.2A383.71,383.71,0,0,0,1217,391.16c-.54-19.45,4.93-38.36,17.91-52.25,5.81-6.12,11.26-9.11,15.89-9.11,6,0,10.72,5.09,13,14.95,20.58-37.2,42.25-78.25,58-112,.11-26.81,7.13-44.69,22.56-60.5,10.68-11.56,23.38-18.14,34.42-19.32a29.16,29.16,0,0,1,3.37-.19m-57.91,306a15.25,15.25,0,0,0,1.66-.09c15.46-1.66,18.14-39.17,13-87-2.52-23.56-5.78-47-9.38-66.76-14.67,29.87-31.89,63.73-50.59,97.76,12.12,32.51,29.53,56.12,45.3,56.12M585.68,374.22c5.54-17.72,6.6-35.71,5.57-45.28-1.11-10.35-6.77-14.33-11.72-14.33a6.77,6.77,0,0,0-1,.05c-4.41.47-10.41,7.08-9.15,18.86,1.42,13.25,7.15,32,16.28,40.7M489.17,543.83a12.23,12.23,0,0,0,1.48-.08C509.71,541,538.53,511.07,559,459a510.74,510.74,0,0,0,19.6-60.2c-21.22-10.39-43-32.63-51.8-52.53-13.8,17.12-26.32,39.3-36.62,61.26-15.6,35.18-23,77.67-20,105.65,2.17,20.32,9.35,30.65,18.92,30.65M962.21,742.52c6.22,0,18.67-22.37,34.2-57.85,12.54-28.89,26.34-66.86,39.75-108.51A246.36,246.36,0,0,0,969.45,669c-14.7,36.57-16.62,67.31-8.54,73.14a2.33,2.33,0,0,0,1.35.43m420-616.84h0a57,57,0,0,0-6.26.34c-18,1.93-36.66,12-51.19,27.61-19.31,19.89-28.66,42.56-29.88,72.82-11.91,25.11-26.22,52.59-39.13,76.59a35.31,35.31,0,0,0-4.93-.34c-10.19,0-20,3.91-29.28,11.64,1.86-4.73,3.61-9.21,5.24-13.39,8.69-22.21,11.86-43,9.66-63.46-1.84-17.17-6.6-37-27.94-54.27-8.06-6.5-17.32-9.93-26.77-9.93-11.06,0-27.07,4.57-40.58,26.38-.35.56-.67,1.14-1,1.73-7.41,14.2-14.41,31.51-24.1,55.47-11.24,27.8-25.22,62.4-46.84,109.72-11.26,24.78-20.8,43.45-28.7,57.48,9-27.88,19.89-54.19,35.65-86.38,17.14-35.54,23.66-61.58,21.2-84.56-2.15-20.07-14.39-37.6-24.34-48.82-9.11-10.51-20.87-16.3-33.13-16.3-9,0-26,3.2-39,24.63-.11.17-.21.35-.32.53-41.4,71.74-70,153.06-81.84,200.91-1.49,6.13-2.69,12.26-3.59,18.34-10.68,18.6-20.27,31.64-27.64,40a114.54,114.54,0,0,1,4.63-19c5.43-15.39,19-49,28.91-69.33,9.64-19.33,17.72-39.72,23.61-54.61l1.09-2.74c.16-.4.3-.8.44-1.21A96.31,96.31,0,0,0,951,283.75c-4.28-39.94-37-73.68-71.4-73.68a51.83,51.83,0,0,0-5.43.28c-23,2.47-48.67,20.25-68.9,37.85a99.38,99.38,0,0,0-7.67-12,19.26,19.26,0,0,0-1.6-1.93c-11.78-12.91-24.25-15.62-32.64-15.62-8.83,0-25.54,3.15-38.38,24.29-.26.42-.5.84-.73,1.27-19.29,36-41.82,67.79-61.69,88.13-7.32-22-18.12-35.11-32.37-47.22l-.54-.44A123,123,0,0,1,618,274.15C599.62,255.35,576.26,245,552.16,245a83.52,83.52,0,0,0-16.83,1.72c-27,5.14-54,21-78.14,45.94-20.77,21.43-38.7,48.52-51.87,78.34-18.43,40.83-26.1,82.21-22.11,119.49A140.86,140.86,0,0,0,416.46,568l.45.5c28.46,31.32,61.71,37.9,84.71,37.9a119.47,119.47,0,0,0,12.83-.69c47.9-5.13,85.82-37.41,112.46-80A82.9,82.9,0,0,0,655,576.55c11.68,10.51,23,12.72,30.38,12.72,17.62,0,33.09-12.11,39.42-30.84a1.2,1.2,0,0,1,.13-.39c16.6-51.74,32.33-93.65,47.48-126.4v.07c-5.06,22-6.71,41.7-4.9,58.6,5.35,50.5,39.43,80.69,91.13,80.69a152.7,152.7,0,0,0,16.14-.89c24.38-2.61,50.06-13.38,73.2-30.33a71.47,71.47,0,0,0,18.67,9.79c-42.86,36.1-70.76,78-81.91,123.7l-.15.64c-3.51,16.06-4.71,31.68-3.39,44,3.44,32.09,21.11,57.89,35.33,73.88.14.15.28.31.43.46,16.31,17.51,33.19,26,51.58,26,10.58,0,20.92-2.8,32.51-8.81,65.54-33.34,102.38-137.59,139.42-261.59,30.83-17.3,63.47-38.1,90.27-65.08,25.08,24.56,57.83,37,97.69,37a216.62,216.62,0,0,0,30.11-2.21c59.2-8.8,103.1-42.56,138.35-106.2,7.5-13.55,14.59-15.51,22.09-17.58,6.6-1.82,20.34-5.62,25.81-20.56,3.65-10,1.9-20.33-5.22-30.74-8.51-12.45-24.93-19.59-45-19.59a90,90,0,0,0-59.9,23.19c-2.12-13.18-4.88-26.73-7.72-40.71-4.61-22.68-9.38-46.13-12-70.62-.73-6.81-1.23-15.53-1.5-22.71,9-20.57,17.34-47.64,4.45-68-7.43-11.7-20.41-18.41-35.61-18.41Zm-867.38,293c4.17-8.87,8.45-17.19,12.77-24.86A157.27,157.27,0,0,0,547,411c-4.11,13.7-8.51,26.35-13.14,37.78l-.11.26c-12.43,31.61-26.74,50.64-36.67,60.24-2.32-24.43,4.92-61.41,17.77-90.52Zm794.1-14.4q2.4-4.42,4.79-8.92c.44,7.67.55,14.08.46,19.4-1.71-3.06-3.47-6.55-5.25-10.48Z" transform="translate(0.03)"/><path class="cls-2" d="M552.42,78.06c10.39,0,39.46,82-50.06,112.69-17.84,4.45-35.88,6.1-54,6.1-7.55,0-15.11-.29-22.68-.77h-1.21c-4.23,0-6,1.71-7.46,5.9-12,35.23-20,71.51-28.69,107.63-12.7,52.68-24.59,105.68-45.15,156.12-59.95,162.71-164.9,162.89-165.36,162.89h0c-1.9.07-3.77.11-5.62.11-113.92,0-135.92-141.14-14.84-171.09a40,40,0,0,1,9.62-1.26c20.6,0,25.64,19.49,17.88,22.5C99.62,511.9,109,584,161.48,584a66.72,66.72,0,0,0,14.15-1.6c59.42-12.92,81.83-102.94,93.27-141.8,12.62-42.9,24.16-85,38.09-127.46,13.78-42,31.9-83.88,52.26-123.34.39-.76.63-1.6,1.06-2.71a15.85,15.85,0,0,0-3.25-1.67c-37.34-8.82-74.46-18.83-112.11-26a199.84,199.84,0,0,0-37.64-3.68c-34.46,0-67.37,9.61-98.07,29.52C87,199.66,74,213.93,69,234.26c-8.06,32.6,34.87,27.28,37.55,40.9,1.85,9.38-11.21,18.27-27.61,18.27-15.56,0-34.12-8-45.79-31.21-18.44-36.68,9.52-86.45,35.09-108.13,31.75-34.58,72.62-51.47,118.7-57.72a250.67,250.67,0,0,1,33.53-2.23c33.77,0,66.75,6.57,99.37,16.53s64.69,20.84,97.12,31c16,5,32.3,8.21,48.93,8.21a123.54,123.54,0,0,0,16.76-1.14c74.84-10,57.43-67.87,69.4-70.63a2,2,0,0,1,.42,0m0-13.56h0a15.68,15.68,0,0,0-3.48.4C537,67.66,534.71,79.37,532.85,88.78c-3.58,18.12-8,40.66-52,46.52a112.26,112.26,0,0,1-15,1c-13.86,0-28.54-2.48-44.88-7.59-14.22-4.44-28.66-9.12-42.63-13.65-17.84-5.78-36.29-11.76-54.58-17.35C286,86.18,252.24,80.58,220.43,80.58a266.25,266.25,0,0,0-35.35,2.36c-53.45,7.24-94.77,27.32-126.3,61.37C30.37,168.84-.95,224.66,21,268.31,38.62,303.22,67.35,307,78.91,307c14.57,0,28.17-5.53,35.48-14.43,4.88-5.93,6.81-13,5.43-20-2.47-12.54-14.23-16.9-23.68-20.39-15.56-5.76-15.75-7.63-14-14.64C86,221.89,96,210,116.63,196.67c28-18.14,58.49-27.34,90.69-27.34a186.16,186.16,0,0,1,35.09,3.43c26,5,52.41,11.48,77.92,17.76,6.83,1.68,13.81,3.4,20.81,5.1a845.67,845.67,0,0,0-47,113.37c-10.23,31.2-19.33,62.71-28.14,93.17q-5,17.28-10.08,34.68c-.69,2.35-1.42,4.89-2.2,7.59-11.53,40-33,114.36-80.94,124.79a53.43,53.43,0,0,1-11.27,1.29c-14.2,0-24-6.9-26.13-18.46-3.31-17.71,12.3-44.2,54.39-60.5,8.94-3.47,13.64-12.8,11.69-23.22-2.29-12.27-14.05-25.47-34.46-25.47a53.74,53.74,0,0,0-12.87,1.65c-31.35,7.71-56.4,23.1-72.51,44.49A92.61,92.61,0,0,0,96.15,616.69c19.87,16.75,46.16,25.61,76,25.61q2.94,0,5.95-.12c8.1-.11,116.16-4.83,177.67-171.54,19.16-47.07,31-96.62,42.46-144.54l3.2-13.35q1.9-8,3.79-15.92c6.85-28.82,13.91-58.58,23.36-87,6.91.38,13.4.56,19.71.56,21,0,39.79-2.12,57.31-6.49l.57-.14.55-.19c29.48-10.11,50.37-26.34,62.08-48.25a87.53,87.53,0,0,0,8.82-55.41c-1-5.91-6.83-35.41-25.2-35.41Z" transform="translate(0.03)"/><path class="cls-2" d="M1382.22,152.79c17.15,0,21.55,16.14,3.86,53.78.21,8.91.81,21.5,1.84,31.07,5.6,52.27,20.29,99.1,23.08,139a123.81,123.81,0,0,1-7.73,52.71c28-23.85,30.8-43.69,45.77-59.53A63.15,63.15,0,0,1,1494.5,350c10.8,0,19.5,3.15,22.67,7.78,11.23,16.44-21.26-.68-44,40.45-28.55,51.61-63.46,84.31-118.43,92.43a188.69,188.69,0,0,1-26.33,2c-35.17,0-69.1-11.49-93.12-46.49-1.35-1.85-2.62-3.79-3.83-5.78-26.17,36-65.82,62.91-113.84,89.13-30.11,101.48-67.55,224.62-129,255.78-6.71,3.49-13.29,5.82-20.13,5.82-9.69,0-19.91-4.69-31.75-17.39C924,759.45,910.63,738.55,908.11,715c-1-8.84-.08-21.59,2.92-35.32,16-65.75,70.86-117,139.2-153.41l8.28-27c-17.64,16-36.08,24.71-58.16,27.08a66,66,0,0,1-7.17.39c-20.28,0-34.47-9.91-43-24.45-22.19,21.75-51,37.87-78.35,40.8a124.93,124.93,0,0,1-13.26.74c-39.87,0-60.49-21.85-64.2-56.48-1.42-13.25-.21-29.77,4.36-49.62C808,399.49,828.24,358.61,842,327.34c4.76-10.89,16.19-42.46,14.09-42.46h0c-6.62.71-37,23.32-73.3,73.39-33.14,45.24-62,123.54-83.75,191.41-2.21,6.53-7,12.4-13.73,12.4-3.6,0-7.77-1.69-12.38-5.88-10.67-9.28-17.9-21.17-19.72-38.1-1.1-10.31.34-24.61,4-39.15,4.57-19.85,14.43-52.93,26.66-84.77-14.67,9-23.5,10-41.91,11.94-11.41,74.2-56.82,164.69-130.44,172.58a91.87,91.87,0,0,1-10,.54c-21.26,0-44.93-7.38-64.6-29-15.3-17.72-24.29-39.1-26.81-62.66-3.55-33.13,3.71-69.65,20-105.65C452.9,330.36,494.62,282,540.62,273.3a56.06,56.06,0,0,1,11.55-1.2c17.6,0,34,8.3,46.43,21.06a151.09,151.09,0,0,0,14,12.64c15.57,13.23,26.72,26.93,31.68,73.31,35-14.17,75.91-69.94,103.84-122.08,4.6-7.57,9.85-11.25,15.2-11.25,4.23,0,8.52,2.29,12.62,6.78a73.07,73.07,0,0,1,14.17,35,86.11,86.11,0,0,1,.68,13.33c27.84-32,64.18-61.23,86.27-63.6a24.19,24.19,0,0,1,2.55-.13c19.33,0,41.57,22.67,44.44,49.46a69.89,69.89,0,0,1-3.48,30.16c-5.86,14.77-14,35.76-23.85,55.43-10.38,21.21-24.5,56.24-30.21,72.49-5.63,17-7.73,32.1-6.46,43.88,1.48,13.86,7,22.66,16.9,22.66a17.09,17.09,0,0,0,1.89-.1c17.23-1.85,41.94-32.94,62.53-69.91a173.14,173.14,0,0,1,3.71-20.59c12-48.2,40.08-126.42,79-193.89,4.66-7.66,10.19-11.6,15.81-11.6,4.31,0,8.68,2.32,12.74,7.06,8.47,9.52,16.52,22.06,17.78,33.84,2,18.4-4.58,40.7-18.59,69.75-20.78,42.44-33,74.28-43.28,110.38C1001.31,462.89,997.82,492,1015,492a15.22,15.22,0,0,0,1.79-.1c19.14-2.05,47.62-49,77.14-114,40.42-88.48,55.49-135.51,70.31-163.91,5.71-9.22,11.64-13.55,17.53-13.55,3.27,0,6.54,1.34,9.74,3.93,12.23,9.86,16.36,20.58,18,36,1.58,14.73-.37,31.32-8,50.75-16.93,43.51-47.56,119-70.26,192.2A383.71,383.71,0,0,0,1217,391.16c-.54-19.45,4.93-38.36,17.91-52.25,5.81-6.12,11.26-9.11,15.89-9.11,6,0,10.72,5.09,13,14.95,20.58-37.2,42.25-78.25,58-112,.11-26.81,7.13-44.69,22.56-60.5,10.68-11.56,23.38-18.14,34.42-19.32a29.16,29.16,0,0,1,3.37-.19m-57.91,306a15.25,15.25,0,0,0,1.66-.09c15.46-1.66,18.14-39.17,13-87-2.52-23.56-5.78-47-9.38-66.76-14.67,29.87-31.89,63.73-50.59,97.76,12.12,32.51,29.53,56.12,45.3,56.12M585.68,374.22c5.54-17.72,6.6-35.71,5.57-45.28-1.11-10.35-6.77-14.33-11.72-14.33a6.77,6.77,0,0,0-1,.05c-4.41.47-10.41,7.08-9.15,18.86,1.42,13.25,7.15,32,16.28,40.7M489.17,543.83a12.23,12.23,0,0,0,1.48-.08C509.71,541,538.53,511.07,559,459a510.74,510.74,0,0,0,19.6-60.2c-21.22-10.39-43-32.63-51.8-52.53-13.8,17.11-26.32,39.3-36.62,61.26-15.6,35.18-23,77.67-20,105.65,2.17,20.32,9.35,30.65,18.92,30.65M962.21,742.52c6.22,0,18.67-22.36,34.2-57.85,12.54-28.89,26.34-66.86,39.75-108.51A246.36,246.36,0,0,0,969.45,669c-14.7,36.57-16.62,67.31-8.54,73.14a2.33,2.33,0,0,0,1.35.43m420-603.29a43,43,0,0,0-4.81.27c-14.87,1.59-30.46,10.14-42.81,23.47-17.43,17.91-25.59,38.59-26.25,66.72-13.91,29.55-31.29,62.6-46,89.65a24,24,0,0,0-11.52-3.08c-8.66,0-17.32,4.48-25.72,13.33-13.75,14.71-21.34,35-21.66,57.53a367.62,367.62,0,0,1-43.72,53.09c16.22-46.83,33.88-91.79,46.64-124.29,2.82-7.18,5.44-13.84,7.79-19.88,7.88-20.16,10.77-38.85,8.81-57.11-1.62-15.13-5.52-31.08-23-45.15-5.71-4.61-11.85-6.94-18.26-6.94-11.07,0-20.84,6.72-29,20l-.26.42-.23.44c-7.11,13.62-14,30.68-23.55,54.28-10.69,26.46-25.34,62.68-47.08,110.28-40.14,88.33-59.91,103.2-65,105.67-.9-4.47-1-16,5-38.21,10.34-36.29,22.63-67.62,42.37-108,16-33.06,22.07-56.83,19.9-77.16-1.87-17.4-14-33.32-21-41.31-8.33-9.66-17.07-11.69-23-11.69-6.12,0-17.81,2.35-27.4,18.11l-.08.13-.07.14c-40.7,70.51-68.77,150.41-80.43,197.39a185.23,185.23,0,0,0-3.68,19.54c-24.21,42.83-44,60-50.85,60.75h-.77c-.43-.37-2.36-3.27-3.14-10.54-1.06-10,1-23.48,5.82-38.06,5.51-15.65,19.38-50.1,29.56-70.9,9.43-18.92,17.38-39,23.19-53.65l1.08-2.74.12-.3.11-.31a83,83,0,0,0,4.13-36c-3.52-32.8-30.58-61.57-57.92-61.58a38.14,38.14,0,0,0-4,.21c-22.39,2.4-51.37,24-75.23,47.22a88.21,88.21,0,0,0-13.64-26.61l-.37-.5-.43-.46c-8.44-9.26-17-11.21-22.63-11.21-7.29,0-17.86,3.09-26.79,17.78l-.19.31-.17.32c-26.08,48.69-56.33,88-81.3,106.69-6-32.74-16.91-47.77-33.49-61.85l-.13-.11-.14-.11a138.15,138.15,0,0,1-12.9-11.64c-15.65-16.12-35.59-25.06-56-25.06A69.84,69.84,0,0,0,538,260c-24.25,4.59-48.82,19.14-71.05,42.08-19.67,20.29-36.68,46-49.21,74.38-17.48,38.73-24.77,77.69-21,112.56,2.86,26.74,13,50.31,30,70.08l.11.13.12.12c25.12,27.65,54.45,33.49,74.67,33.49a105.73,105.73,0,0,0,11.39-.61c76.38-8.23,125.48-93.86,140.61-173.74,2.61-.33,5.1-.69,7.51-1.12-8.13,24-14,45.28-17.08,58.46-4,16-5.57,31.9-4.3,43.76,2,19.07,10,34.37,24.2,46.8,6.84,6.17,14,9.29,21.38,9.29,11.89,0,22.07-8.28,26.57-21.62,29.22-91,56-152.4,81.85-187.73a406.72,406.72,0,0,1,35-42.38c-2.14,4.82-4.43,9.89-6.8,15.13-12.66,27.92-28.39,62.73-36.33,95.48-4.76,20.67-6.32,38.88-4.67,54.27,4.67,43.59,33,68.6,77.68,68.6a138.82,138.82,0,0,0,14.7-.82c25-2.68,51.77-15,75.1-34.4,11.56,11.79,27,18.13,44.79,18.13a79.26,79.26,0,0,0,8.44-.45C946,578.37,910.46,625,897.9,676.46v.32c-3.15,14.46-4.3,28.91-3.15,39.65,3.21,30,21.42,54.43,32,66.31l.11.11.11.12c13.61,14.6,27.24,21.7,41.66,21.7,8.36,0,16.74-2.33,26.38-7.35,66.48-33.7,104.07-157.27,134.13-258.66,35.22-19.47,73.37-43.44,101.81-75.88,23.54,28.8,56.31,43.38,97.57,43.38a202,202,0,0,0,28.22-2.07c55.36-8.18,94.93-38.8,128.41-99.29,10.25-18.54,21.86-21.75,30.34-24.09,5.75-1.58,13.62-3.76,16.68-12.15s-2-16-3.67-18.43c-6-8.7-18.29-13.69-33.86-13.69a76.5,76.5,0,0,0-55.32,24.09c-6.07,6.43-10.39,13.32-14.41,20.08q-.08-2.42-.24-4.86c-1.48-21.17-6.07-43.76-10.94-67.68-4.67-23-9.5-46.75-12.19-71.87-.88-8.22-1.43-18.73-1.68-26.83,12.36-27.23,14.47-45.72,6.66-58-2.87-4.53-9.83-12.13-24.16-12.13ZM1294,403.73c9.42-17.27,18.94-35.34,28.74-54.56,1,7.8,2,15.84,2.83,24,5.08,47.37.57,66.89-2.32,71.94-5.28-1.51-17.6-12.73-29.25-41.41ZM502.58,413.2a350.43,350.43,0,0,1,23.23-42.27,140.57,140.57,0,0,0,37,34.55,464.41,464.41,0,0,1-16.33,48.46c-20.94,53.23-46.89,74-57,76.31-1.31-1.2-4.38-6.27-5.68-18.47-2.85-26.58,4.89-67.09,18.81-98.58Zm470,291.1a195.51,195.51,0,0,1,9.52-30.25,229.13,229.13,0,0,1,18.28-35.43c-5.64,15.09-11.11,28.76-16.29,40.7-4.46,10.21-8.28,18.4-11.51,25Z" transform="translate(0.03)"/><path class="cls-3" d="M426.19,195.29c25.77,1.71,51.45,1.1,76.72-5.15C593.73,159.23,562.8,75.32,552.8,77.61c-12,2.74,5.31,60.67-69.55,70.48-22.52,3-44.31-.52-65.66-7.25-32.41-10.21-64.57-21.19-97-31.19C277.25,96.32,233.3,89,187.68,95.05c-46.09,6.14-87,22.94-118.83,57.45-25.62,21.62-53.7,71.33-35.34,108.05,23.86,47.71,76.93,31.39,73.37,13.1-2.65-13.62-45.59-8.4-37.46-41,5.07-20.32,18.14-34.55,40.38-48.91,41.82-26.93,87.57-34.87,135.82-25.52,37.63,7.31,74.72,17.4,112,26.3a16.11,16.11,0,0,1,3.25,1.67,25.84,25.84,0,0,1-1.07,2.72c-20.44,39.41-38.66,81.21-52.53,123.22-14,42.47-25.66,84.5-38.39,127.37-11.52,38.83-34.14,128.8-93.58,141.59-64.47,13.87-83.06-68,9.45-103.54,8.86-3.41,1.12-28.3-27.45-21.3-123.12,30.16-98.73,175.48,20.07,171,0,0,105.28.42,165.73-162.51,20.67-50.37,32.68-103.35,45.52-156,8.77-36.1,16.83-72.36,28.94-107.57C419.08,196.57,421.07,195,426.19,195.29Z" transform="translate(0.03)"/><path class="cls-4" d="M172.62,634.14c-44.95,0-95.13-24.06-102.74-78.52-5.72-40.88,18.59-89.5,85.79-106,21.27-5.21,34.82,4.75,38.41,16.2,2.49,7.94-.42,15.51-6.92,18-48.81,18.78-64.28,50-58,71.09,5,16.63,22.48,24.27,44.69,19.5,51.93-11.17,74.29-88,86.31-129.35l2.21-7.54c3.44-11.6,6.8-23.14,10.16-34.65,8.86-30.4,18-61.84,28.28-92.92,12.9-39.06,30-79.39,50.76-119.95-9.71-2.34-19.41-4.75-29.1-7.16-25.58-6.36-52-12.93-78.2-18-47.3-9.17-91.31-.91-130.81,24.58C91.2,203.78,80.34,216.78,76,234.27c-3.29,13.16,3,17,18.18,22.66,8.67,3.23,17.64,6.57,19.35,15.39,1.91,9.79-5.55,19.35-18.57,23.78-21.08,7.18-51.2,0-67.51-32.56-20.31-40.62,9.8-93.06,36.7-116,30.53-33,70.65-52.34,122.63-59.27,41.7-5.55,84.84-.84,135.76,14.84,18.23,5.62,36.64,11.63,54.44,17.44,14.2,4.64,28.4,9.28,42.65,13.77,23,7.25,43.53,9.53,62.72,7,48.83-6.4,54.3-33.72,57.91-51.8,1.73-8.65,3.36-16.81,11-18.57,7.36-1.67,14.29,6.17,18.5,21,9.85,34.72-1.18,82.94-64.69,104.56l-.56.16c-23,5.68-48,7.38-78.8,5.34h0a7.06,7.06,0,0,0-1.3,0,10.23,10.23,0,0,0-.52,1.29c-10.23,29.74-17.7,60.92-24.93,91.07q-1.92,8-3.83,15.89l-3.24,13.39c-11.52,47.71-23.43,97-42.55,143.64C288.32,631.76,182.8,634,177.37,634h-.07C175.77,634.1,174.21,634.14,172.62,634.14Zm-5.84-172.33a33.76,33.76,0,0,0-7.88,1c-42.5,10.41-82.36,42.56-75.6,90.91,4.86,34.8,35.78,68.94,93.8,66.76,1.27,0,101.74-2.08,159.63-158.1,18.8-45.86,30.59-94.68,42-141.89L382,307.08c1.29-5.28,2.55-10.56,3.82-15.85,7.31-30.46,14.86-62,25.3-92.32,2.63-7.6,7.53-10.91,15.53-10.38h0c29.2,1.94,52.84.38,74.36-4.9,41.68-14.28,54.17-39.51,57.3-58.18,2.68-16-.81-29.61-4-36.69-.26,1.18-.5,2.39-.72,3.47-3.83,19.19-11,54.92-69.42,62.58-21.2,2.8-43.63.36-68.57-7.5-14.3-4.5-28.54-9.15-42.79-13.81-17.75-5.8-36.1-11.79-54.22-17.37-49-15.09-90.29-19.65-130-14.36-48.89,6.51-86.42,24.61-114.75,55.33l-.61.58c-24.64,20.79-50,67.06-33.64,99.84,14.58,29.17,39.75,29.62,51,25.79,6.61-2.26,10.09-6,9.64-8.36-.72-1.53-7-3.87-10.78-5.27C77,265.06,56.25,257.32,62.81,231,68,210.12,81,194.28,106.1,178c42.53-27.45,89.88-36.37,140.74-26.5,26.53,5.15,53.15,11.76,78.89,18.16,11.14,2.77,22.28,5.54,33.43,8.2a13.79,13.79,0,0,1,4.12,1.85c.23.14.47.29.72.42l5.35,2.82-2.52,6.53a18.36,18.36,0,0,1-1,2.48c-21.45,41.36-39,82.48-52.11,122.22-10.18,30.85-19.31,62.17-28.14,92.46q-5,17.29-10.18,34.72l-2.19,7.47c-12.8,44-36.63,125.94-96.47,138.82-33.69,7.24-54.69-9.28-60.54-28.89-8-26.72,9.11-65.34,65.27-87.27a8.34,8.34,0,0,0-2.37-5.17c-2.75-3-7-4.54-12.3-4.54Z" transform="translate(0.03)"/><path class="cls-3" d="M1517.34,359.46c-7.28-10.69-44-13.59-68.16,11.9-15,15.81-17.87,35.64-45.9,59.43a124.09,124.09,0,0,0,7.85-52.69c-2.7-39.93-17.29-86.79-22.77-139.07-1-9.57-1.58-22.17-1.77-31.08,18.89-39.95,12.77-55.69-7.11-53.6-11,1.15-23.76,7.7-34.46,19.24-15.47,15.77-22.53,33.63-22.7,60.45-15.82,33.68-37.58,74.67-58.25,111.83-4.06-17.44-15.5-20-28.91-5.91-13,13.87-18.53,32.76-18,52.21a383.84,383.84,0,0,1-86,92c22.86-73.12,53.66-148.57,70.7-192,7.64-19.42,9.62-36,8.08-50.73-1.62-15.47-5.73-26.2-17.93-36.09-9-7.25-18.37-4.77-27.29,9.56-14.89,28.36-30.07,75.37-70.68,163.75-29.67,64.9-58.26,111.83-77.4,113.83s-15.61-28.14-8.08-55.73c10.36-36.08,22.66-67.89,43.53-110.28,14.08-29,20.68-51.3,18.75-69.71-1.24-11.78-9.25-24.34-17.7-33.88-9.33-10.93-20.3-9-28.56,4.48-39.1,67.38-67.38,145.54-79.45,193.71a169.19,169.19,0,0,0-3.76,20.58c-20.68,36.92-45.46,68-62.69,69.77-11,1.15-17.2-7.88-18.75-22.61-1.23-11.78.9-26.89,6.57-43.86,5.74-16.24,19.94-51.23,30.38-72.43,9.85-19.64,18.07-40.61,24-55.37A69.71,69.71,0,0,0,924.42,287c-2.93-28-27-51.52-46.87-49.43-22.1,2.31-58.5,31.44-86.42,63.4a83.68,83.68,0,0,0-.65-13.33,73,73,0,0,0-14.09-35c-9.26-10.2-19.57-9.12-27.83,4.41-28,52.07-69.11,107.74-104.11,121.84-4.86-46.39-16-60.12-31.52-73.38a150.1,150.1,0,0,1-14-12.68c-15-15.55-36.07-24.51-57.93-20-46,8.55-87.85,56.86-110.73,108.39-16.33,36-23.68,72.46-20.2,105.6,2.47,23.56,11.41,45,26.67,62.72,22.74,25.16,50.92,31.14,74.48,28.67,73.64-7.72,119.25-98.12,130.83-172.29,18.42-1.93,27.25-2.86,41.94-11.84-12.3,31.81-22.23,64.87-26.85,84.71-3.69,14.53-5.17,28.83-4.09,39.14,1.78,16.94,9,28.83,19.64,38.14,13.17,12,22.71,3.57,26.12-6.46,21.93-67.82,50.94-146,84.18-191.22,36.45-50,66.84-72.53,73.47-73.22,2.21-.23-9.35,31.5-14.16,42.43-13.85,31.23-34.14,72.07-43.53,110.28-4.62,19.84-5.87,36.35-4.48,49.61,4,38.29,28.73,61,77.33,55.91,27.39-2.87,56.21-18.92,78.45-40.62C959.51,519,976,529.49,1000.16,527c22.09-2.32,40.54-11,58.22-27L1050,526.94C981.62,563.09,926.67,614.26,910.48,680c-3,13.72-3.93,26.47-3,35.31,2.47,23.57,15.84,44.5,28.51,58.8,20.14,21.72,35.61,20.09,51.84,11.69,61.52-31,99.24-154.09,129.56-255.54,48.08-26.11,87.79-52.93,114-88.87,1.21,2,2.47,3.94,3.82,5.79,29.9,43.77,75.32,50.92,119.35,44.81,55-8,90-40.62,118.64-92.16C1496.08,358.73,1528.54,375.92,1517.34,359.46ZM559,458.46c-20.6,52-49.49,81.87-68.56,84.62-10.31,1.08-18.09-9.27-20.33-30.63-2.93-28,4.53-70.46,20.2-105.6C500.62,385,513.19,362.8,527,345.71c8.79,19.92,30.48,42.22,51.68,52.65A510,510,0,0,1,559,458.5Zm26.86-84.71C576.71,365,571,346.27,569.63,333c-1.23-11.78,4.78-18.37,9.19-18.84,5.16-.54,11.51,3.27,12.67,14.31,1,9.61-.09,27.59-5.67,45.3ZM995.89,685.13c-16.84,38.25-30.06,61.23-35.68,57.35-8.06-5.86-6.07-36.59,8.71-73.13a246.33,246.33,0,0,1,67-92.64c-13.53,41.66-27.42,79.6-40,108.46Zm330-225.18c-16.2,1.7-34.36-22.46-46.83-56.14,18.77-34,36.07-67.81,50.81-97.64,3.56,19.73,6.76,43.21,9.23,66.78,5,47.91,2.28,85.42-13.19,87.05Z" transform="translate(0.03)"/><path class="cls-4" d="M967.81,798.39c-10.89,0-23.09-4.9-36.8-19.68-10.11-11.42-27.33-34.56-30.28-62.71-1-10,.09-23.71,3.13-37.48,15-61.06,63.58-115,140.51-156.31l1.23-4a101.54,101.54,0,0,1-44.75,15.39c-21.69,2.27-39.86-5-52-20.55-23.51,21-51,34.33-76.57,37-25.27,2.66-45.55-1.74-60.23-13.06-14-10.8-22.28-27.25-24.55-48.89-1.54-14.64,0-32.09,4.61-51.85,7.92-32.2,22.94-65.19,36.18-94.29,2.72-6,5.34-11.74,7.76-17.2,2.61-5.92,6.66-16.65,9.72-25.48-12.3,9.77-33,29.67-57.35,63-26.41,35.9-53.63,97.82-83.21,189.31-3,8.72-8.68,14.7-15.71,16.5-4.85,1.24-12.51,1-21.43-7.11-12.82-11.2-20-25.11-21.81-42.45-1.17-11.12.39-26.26,4.26-41.51,3.49-15,10.9-41,21.18-69.6-7.4,2.56-14.6,3.59-23.85,4.6-13.73,78.78-61.44,165-136,172.84-17.84,1.84-52,.34-80.21-30.87-16.22-18.87-25.74-41.22-28.39-66.57C399.72,453.74,406.9,416,424,378.32c32.42-73,82.57-106.11,115.66-112.25,22.63-4.7,46,3.29,64,21.93a143.57,143.57,0,0,0,13.38,12.12c15,12.84,27.06,26.23,32.84,68.36,32.75-18.92,69.65-72.24,92.55-114.77,6.91-11.33,14.37-14.22,19.43-14.7,4.71-.43,11.93.74,19.39,9l.39.49a80.16,80.16,0,0,1,15.13,36.05c25.67-26.69,57.75-51.47,79.91-53.79,24.59-2.66,51.06,24.36,54.32,55.46a76.28,76.28,0,0,1-3.87,33.07l-1.2,3c-5.79,14.54-13.73,34.46-23.13,53.19-10.34,21-24.47,55.9-30,71.65-5.22,15.62-7.38,29.8-6.22,40.9q1.85,17.47,11.31,16.56c10.66-1.11,32.31-21.71,56.82-65.18a181,181,0,0,1,3.74-20c11.67-46.57,39.67-125.68,80.17-195.49,7.06-11.56,14.87-14.46,20.19-14.88,4.85-.39,12.16.93,19.4,9.4,6.45,7.28,17.65,22,19.28,37.57,2,19-4,41.63-19.39,73.38-20,40.71-32.53,72.34-43.11,109.19-7.59,27.79-6.66,42-3.26,46,.39.46,1.2,1.41,4.11,1.11,5.35-.56,26.33-10.14,72-109.91,21.92-47.69,36.67-84,47.45-110.46,9.52-23.4,16.4-40.31,23.39-53.62l.25-.43c6-9.68,12.8-15.21,20.15-16.45,4.07-.67,10.33-.33,17.16,5.2,14.64,11.87,18.74,24.83,20.4,40.65,1.8,17.16-1,34.79-8.52,53.92-2.34,6-5,12.61-7.78,19.74-15.2,38.44-37.27,94.28-55.76,150.15a377,377,0,0,0,65.71-74.29c-.08-21.65,7-41.06,19.9-54.85,11-11.49,19.78-12.11,25.25-10.62a17.61,17.61,0,0,1,9.15,6.16c15.79-28.68,35.55-65.75,50.94-98.37.43-27.44,7.84-46.54,24.63-63.64,11.17-12.06,25.28-19.85,38.59-21.24,12.5-1.32,18.86,3.6,22,8,7.19,10.13,4.79,27.75-7.32,53.82.21,8.41.75,20,1.7,28.93,2.66,25.45,7.47,49.39,12.12,72.53,4.76,23.71,9.27,46.1,10.66,66.79a132.36,132.36,0,0,1-1.36,29.76,173.65,173.65,0,0,0,12.63-19.24c4.5-7.59,8.75-14.76,15.1-21.46,14.42-15.19,35-23.27,55.14-21.66,11,.89,19.56,4.76,23.54,10.61h0c2.24,3.29,4.59,7.65,2.88,12.28-1.88,5.11-6.86,6.48-12.14,7.92-9.1,2.49-22.85,6.26-34.53,27.26-32.48,58.39-70.6,87.86-123.6,95.57C1299.93,506.4,1258.05,491,1231,453c-28.87,35.62-70.29,61.3-108,81.88-28.52,95.45-67.55,224.38-132.19,257C983.93,795.43,976.27,798.39,967.81,798.39Zm104.35-320.07-16.49,53.24-2.48,1.31C1001,560.49,935,608.72,917.06,681.6c-2.66,12.06-3.74,24.46-2.85,33,2.56,24.39,17.92,44.93,26.84,55,17.16,18.48,29,17.74,43.66,10.17,60.09-30.31,98.28-158.14,126.17-251.47l.8-2.68,2.46-1.33c39.6-21.51,83.85-48.66,111.8-86.92l6-8.2,5.27,8.68c1.12,1.84,2.28,3.63,3.51,5.33,24.29,35.55,61.22,49.27,112.94,42.08,48.36-7,83.42-34.4,113.65-88.74,14.45-26,32.9-31,42.8-33.75l.93-.25c-1.76-1.51-6-3.42-12.72-4A56.35,56.35,0,0,0,1454.1,376c-5.3,5.59-9,11.82-13.26,19-7.11,12-15.16,25.61-33.17,40.89l-19.9,16.89,9.17-24.44a117.49,117.49,0,0,0,7.43-49.88c-1.33-19.78-5.75-41.75-10.42-65-4.71-23.45-9.58-47.7-12.32-73.78-1-10-1.62-22.87-1.81-31.65v-1.59l.68-1.45c14.39-30.41,10.69-39.56,9.21-41.64s-4.65-2.82-9.48-2.32c-9.94,1-21.23,7.44-30.2,17.11-14.72,15-20.73,31.15-20.89,55.88v1.49l-.63,1.35c-17.82,37.93-41.63,82-58.47,112.24l-8.54,15.36-4-17.12c-1.24-5.34-3.37-9-5.56-9.62-2-.55-6.21,1-11.83,6.86-10.89,11.6-16.65,28.43-16.17,47.36l.06,2.12-1.17,1.78a390.27,390.27,0,0,1-87.54,93.63l-16.91,12.84,6.34-20.26c19.78-63.27,45.84-129.17,63.09-172.78,2.81-7.12,5.42-13.72,7.77-19.72,6.71-17.06,9.22-32.61,7.65-47.54-1.61-15.34-5.65-23.59-15.46-31.53-3.5-2.84-5.66-2.48-6.38-2.37-3.21.54-7,4.1-10.76,10-6.64,12.69-13.39,29.29-22.71,52.2-10.82,26.61-25.65,63-47.69,111-52.37,114.55-75.32,117-82.86,117.74-8.25.88-13.19-2.68-15.85-5.81-2.89-3.4-11.67-13.73.53-58.44,10.85-37.77,23.58-70,44-111.49,14.22-29.31,19.8-49.68,18.09-66-.91-8.64-6.75-19.6-16-30.09-2-2.37-5-5-8.1-4.78s-6.53,3.27-9.61,8.3C990.62,299.28,963.14,377,951.69,422.65a167.09,167.09,0,0,0-3.61,19.74l-.15,1.33-.66,1.17c-11.82,21.1-42.09,70.49-67.89,73.2-5.36.56-23.18.17-26.2-28.64-1.36-13,1-29.16,6.88-46.72,5.72-16.17,20.14-51.77,30.72-73.27,9.16-18.26,17-37.87,22.68-52.18l1.08-2.71a62.49,62.49,0,0,0,3.1-26.93c-2.61-24.89-24.29-45-39.43-43.4-18.26,1.91-52.75,27.62-82,61.12l-13.07,15,1.2-19.83a80.52,80.52,0,0,0-.63-12.22,65.85,65.85,0,0,0-12.59-31.41c-2-2.19-5-4.65-7.86-4.34s-6,3.09-9,7.95c-27,50.06-69.45,109.33-107.37,124.59l-8.32,3.36-.93-8.94c-4.71-44.88-15.06-56.88-29.18-68.92a155,155,0,0,1-14.4-13.07c-14.78-15.29-33.62-21.87-51.74-18.11-39.45,7.33-81,48.34-105.91,104.5-16.14,35.56-22.93,70.86-19.65,102.14,2.36,22.55,10.8,42.41,25.08,59,22.86,25.3,50,28.31,68.63,26.35,66-6.92,112.73-89,124.84-166.6l.8-5.15,5.19-.54c18.19-1.91,25.72-2.7,39.11-10.89l17.07-10.44-7.22,18.67c-13.1,33.91-22.5,66.34-26.57,83.8-3.52,13.9-5,27.3-4,36.9,1.47,14,7,24.68,17.36,33.74,2.11,1.93,5.93,4.89,9,4.1,2.41-.62,4.85-3.61,6.22-7.64,30-92.8,57.87-156,85.14-193,36.49-50,68.25-74.9,78.22-75.94l3.94-.42,2.48,3.23c2.21,3,2.64,5.06-4,24.11-3.19,9.13-7.14,19.4-9.59,25s-5.08,11.31-7.82,17.33c-13,28.57-27.73,60.95-35.33,91.84-4.24,18.2-5.7,34.14-4.32,47.28,1.87,17.8,8.37,31.11,19.34,39.57,11.84,9.11,28.84,12.58,50.54,10.31,24.37-2.55,52.19-17,74.43-38.73l6.22-6.07,4.37,7.51c6.36,10.92,19.06,23.39,43.53,20.84,20.44-2.14,37.72-10.16,54.38-25.24Zm-110.6,271.4a9.12,9.12,0,0,1-5.2-1.63c-14.16-10.28-6.64-49.3,6.28-81.24a254.48,254.48,0,0,1,68.85-95.25l18.26-15.6-7.41,22.84c-14,43-27.87,80.72-40.24,109h0c-25.51,58-33.54,60.22-37.84,61.44A9.9,9.9,0,0,1,961.56,749.72Zm59.21-149A241.58,241.58,0,0,0,975.2,672c-12.79,31.61-14,53.5-12.29,61.79,3.81-4.72,11.84-17.38,26.77-51.3,9.63-22.1,20.24-50,31.09-81.76ZM489.07,550c-7,0-13-3.46-17.45-9.9-4.29-6.25-7.08-15.28-8.29-26.85-3.18-30.29,5.16-74.12,20.75-109.07,12-25.38,25-47,37.68-62.68l7-8.63L533.23,343c8.18,18.53,29,39.72,48.48,49.3l5,2.46-1.43,5.36a505.73,505.73,0,0,1-20,60.93c-19.64,49.58-49.33,85.26-73.88,88.8A22.59,22.59,0,0,1,489.07,550ZM526,358.3c-10,13.88-20.12,31.48-29.59,51.53-14.64,32.83-22.54,73.88-19.59,102,1.22,11.58,3.93,17.59,6,20.59,2.7,3.94,5.22,4.16,6.9,4,9-1.3,38.4-18.35,63-80.37V456a483.91,483.91,0,0,0,18.07-54.13c-17.36-10-34.52-26.74-44.79-43.6Zm798.3,108.6c-18.29,0-37.4-22.38-51.57-60.64l-1.08-2.92,1.5-2.71c16.33-29.56,32.9-61.41,50.67-97.37l9.1-18.43,3.65,20.23c3.52,19.55,6.74,42.81,9.31,67.27,2.66,25.44,3,47,1,62.41-2.58,20.12-9.41,30.9-20.3,32h0c-.76.07-1.52.11-2.28.11Zm-37.77-62.47c13.47,34.91,29.22,49.77,38.68,48.87h0c2.66-.28,6.41-5.76,8.28-20.28s1.46-34.87-1.1-59.27c-1.67-16-3.63-31.49-5.77-45.7-13.85,27.49-27,52.65-40.09,76.33ZM589,386.23l-7.87-7.54c-10.39-10-16.65-29.73-18.24-44.93s6.67-25.38,15.23-26.28,18.51,5.09,20.11,20.34c1.15,10.89-.25,29.95-6,48ZM579.78,321h-.25c-.9.37-3.93,4-3.16,11.39A88.34,88.34,0,0,0,583,357.17c2-11.14,2.47-21.48,1.8-27.89C584.15,323.48,581.8,321,579.78,321Z" transform="translate(0.03)"/><path class="cls-1" d="M1269,27.11c1.54,0,3.12.08,4.75.24q19.63,1.92,31.31,19.3A54.19,54.19,0,0,1,1313.9,83q-5.72,58.37-75.46,77.25l1.18-12.12q21.83-10.35,31.29-18.41,15.13-12.75,16.9-30.8,1.57-16.06-8-17c-.37,0-.77,0-1.19,0a38,38,0,0,0-8.35,1.24,37.94,37.94,0,0,1-8.34,1.24,9,9,0,0,1-1.19,0,24.92,24.92,0,0,1-18.1-10,27.8,27.8,0,0,1-5.7-20.28q1.38-14.1,12.49-21.25a34.39,34.39,0,0,1,19.57-5.6M1269,0h0a61.16,61.16,0,0,0-34.45,10.05c-14.36,9.32-22.86,23.59-24.59,41.27a54.93,54.93,0,0,0,11.14,39.39,51.59,51.59,0,0,0,30.69,19.55c-3.42,2.57-10.27,6.93-23.78,13.33a27.11,27.11,0,0,0-15.39,21.84l-1.19,12.12a27.12,27.12,0,0,0,34.07,28.81c72.59-19.66,91.93-65.65,95.37-100.78a81,81,0,0,0-13.25-53.94c-12.41-18.45-30.1-29.22-51.27-31.29-2.49-.25-5-.37-7.39-.37Z" transform="translate(0.03)"/><path class="cls-2" d="M1269,27.11c1.54,0,3.12.08,4.75.24q19.63,1.92,31.31,19.3A54.19,54.19,0,0,1,1313.9,83q-5.72,58.37-75.46,77.25l1.18-12.12q21.83-10.35,31.29-18.41,15.13-12.75,16.9-30.8,1.57-16.06-8-17c-.37,0-.77,0-1.19,0a38,38,0,0,0-8.35,1.24,37.94,37.94,0,0,1-8.34,1.24,9,9,0,0,1-1.19,0,24.92,24.92,0,0,1-18.1-10,27.8,27.8,0,0,1-5.7-20.28q1.38-14.1,12.49-21.25a34.39,34.39,0,0,1,19.57-5.6m0-13.55a47.81,47.81,0,0,0-27,7.82c-10.81,7-17.21,17.81-18.53,31.26a41,41,0,0,0,8.42,29.83,38.57,38.57,0,0,0,27.55,15.27c.83.08,1.67.12,2.51.12a51.08,51.08,0,0,0,11.47-1.61l1-.23c0,.46-.06,1-.11,1.54-.83,8.45-4.8,15.57-12.14,21.76-3.75,3.19-11.66,8.6-28.36,16.52a13.54,13.54,0,0,0-7.69,10.93l-1.19,12.12a13.55,13.55,0,0,0,12.17,14.81c.44,0,.88.06,1.33.06a13.6,13.6,0,0,0,3.54-.47c52.28-14.15,81-44.1,85.41-89a67.61,67.61,0,0,0-11-45.13c-10-14.9-24.28-23.63-41.29-25.29-2.06-.2-4.1-.3-6.07-.3Z" transform="translate(0.03)"/><path class="cls-4" d="M1238.44,167a6.78,6.78,0,0,1-6.78-6.8c0-.22,0-.43,0-.65l1.18-12.11a6.8,6.8,0,0,1,3.85-5.46c13.94-6.61,24-12.48,29.8-17.45,8.79-7.4,13.53-16,14.54-26.3.53-5.38-.15-7.78-.6-8.74-.27-.59-.4-.77-1.31-.86-.61-.06-2.58-.08-7.32,1-5.07,1.19-8.8,1.63-11.75,1.33a31.54,31.54,0,0,1-22.83-12.64,34.53,34.53,0,0,1-7.06-25c1.14-11.52,6.37-20.37,15.57-26.29,7.93-5.31,17.59-7.49,28.65-6.4,15.14,1.48,27.34,9,36.28,22.25a61.13,61.13,0,0,1,10,40.76h0c-4.1,41.82-31.16,69.79-80.45,83.13A6.44,6.44,0,0,1,1238.44,167Zm40.18-92c.62,0,1.25,0,1.87.09a14.65,14.65,0,0,1,12.26,8.58c1.88,4,2.48,9.18,1.83,15.83-1.36,13.8-7.84,25.68-19.28,35.33a105.7,105.7,0,0,1-16.81,11.2c29.8-13.16,45.79-34.18,48.68-63.77h0a47.24,47.24,0,0,0-7.73-31.91c-6.64-9.87-15.26-15.21-26.34-16.29-8-.78-14.45.61-19.88,4.24-5.72,3.69-8.8,9-9.51,16.28a21,21,0,0,0,4.33,15.5,18.21,18.21,0,0,0,13.38,7.38c.61.06,2.58.08,7.31-1A44.09,44.09,0,0,1,1278.62,75Z" transform="translate(0.03)"/></svg>